<?xml version="1.0" encoding="iso-8859-1"?>
<!-- Generator: Adobe Illustrator 28.4.1, SVG Export Plug-In . SVG Version: 6.00 Build 0)  -->
<svg version="1.1" xmlns="http://www.w3.org/2000/svg" xmlns:xlink="http://www.w3.org/1999/xlink" x="0px" y="0px"
	 viewBox="0 0 630 320" style="enable-background:new 0 0 630 320;" xml:space="preserve">
<g id="guias">
</g>
<g id="logo">
	<g>
		<path style="fill:#283276;" d="M265.973,204.825c0,9.805-7.938,18.21-18.21,18.21c-9.805,0-18.21-7.938-18.21-18.21
			c0-9.805,7.938-18.21,18.21-18.21C258.035,187.082,265.973,195.019,265.973,204.825"/>
		<path style="fill:#F29FC5;" d="M147.374,137.588c0,9.805-7.938,18.21-18.21,18.21s-18.21-7.938-18.21-18.21
			c0-9.805,7.938-18.21,18.21-18.21S147.374,127.782,147.374,137.588"/>
		<path style="fill:#008ECF;" d="M232.354,185.214c0,9.805-7.938,18.21-18.21,18.21s-17.743-8.405-17.743-18.21
			s7.938-18.21,18.21-18.21S232.354,175.409,232.354,185.214"/>
		<path style="fill:#F29FC5;" d="M188.463,207.16c0,9.805-7.938,18.21-18.21,18.21s-18.21-7.938-18.21-18.21
			c0-9.805,7.938-18.21,18.21-18.21S188.463,196.887,188.463,207.16"/>
		<path style="fill:#283276;" d="M188.463,249.183c0,9.805-7.938,18.21-18.21,18.21c-9.805,0-18.21-7.938-18.21-18.21
			c0-9.805,7.938-18.21,18.21-18.21C180.525,231.44,188.463,239.377,188.463,249.183"/>
		<path style="fill:#283276;" d="M265.973,115.175c0,9.805-7.938,18.21-18.21,18.21c-9.805,0-18.21-7.938-18.21-18.21
			c0-9.805,7.938-18.21,18.21-18.21C258.035,97.432,265.973,105.37,265.973,115.175"/>
		<path style="fill:#283276;" d="M232.354,137.588c0,9.805-7.938,18.21-18.21,18.21s-17.743-7.938-17.743-18.21
			c0-9.805,7.938-18.21,18.21-18.21S232.354,127.782,232.354,137.588"/>
		<path style="fill:#283276;" d="M145.039,186.615c0,9.805-7.938,18.21-18.21,18.21s-18.21-7.938-18.21-18.21
			c0-9.805,7.938-18.21,18.21-18.21S145.039,176.809,145.039,186.615"/>
		<path style="fill:#283276;" d="M110.486,111.44c2.335,9.805-3.735,19.144-13.541,21.479c-9.805,2.335-19.144-3.735-21.479-13.541
			c-1.868-9.805,4.202-19.611,13.541-21.479C98.813,95.564,108.619,101.634,110.486,111.44"/>
		<path style="fill:#E1000F;" d="M109.086,150.195c-0.934,5.603-6.07,9.339-11.673,8.872c-5.603-0.934-9.339-6.07-8.872-11.673
			c0.934-5.603,6.07-9.339,11.673-8.872C105.817,139.455,109.553,144.591,109.086,150.195"/>
		<path style="fill:#E1000F;" d="M212.276,224.436c-0.934,6.537-7.004,10.739-13.541,9.805c-6.537-0.934-10.739-7.004-9.805-13.541
			s7.004-10.739,13.541-9.805C208.541,211.829,212.743,217.899,212.276,224.436"/>
		<path style="fill:#E1000F;" d="M246.829,149.728c-0.467,3.735-4.202,6.537-7.938,6.07c-3.735-0.467-6.537-4.202-6.07-7.938
			c0.467-3.735,4.202-6.537,7.938-6.07C244.961,142.257,247.296,145.992,246.829,149.728"/>
		<path style="fill:#E1000F;" d="M176.79,116.576c-0.934,5.603-6.07,9.339-11.673,8.872c-5.603-0.934-9.339-6.07-8.872-11.673
			c0.934-5.603,6.07-9.339,11.673-8.872C173.988,105.837,177.724,110.973,176.79,116.576"/>
		<path style="fill:#F29FC5;" d="M206.206,103.035c-0.934,5.603-6.07,9.339-11.673,8.872c-5.603-0.934-9.339-6.07-8.872-11.673
			c0.934-5.603,6.07-9.339,11.673-8.872C203.405,92.296,207.14,97.432,206.206,103.035"/>
		<path style="fill:#FFE000;" d="M139.903,215.564c-0.934,5.603-6.07,9.339-11.673,8.872c-5.603-0.934-9.339-6.07-8.872-11.673
			c0.934-5.603,6.07-9.339,11.673-8.872C136.634,204.825,140.37,210.428,139.903,215.564"/>
		<path style="fill:#FFE000;" d="M240.292,169.805c-0.934,5.603-6.07,9.339-11.673,8.872c-5.603-0.934-9.339-6.07-8.872-11.673
			c0.934-5.603,6.07-9.339,11.673-8.872C237.49,159.066,241.226,164.202,240.292,169.805"/>
		<path style="fill:#283276;" d="M228.619,217.432c2.802,4.669,1.401,11.206-3.268,14.008c-4.669,2.802-11.206,1.401-14.008-3.268
			c-2.802-4.669-1.401-11.206,3.268-14.008C219.28,210.895,225.817,212.763,228.619,217.432"/>
		<path style="fill:#FFE000;" d="M150.642,96.965c-0.934,5.603-6.07,9.339-11.673,8.872c-5.603-0.934-9.339-6.07-8.872-11.673
			c0.934-5.603,6.07-9.339,11.673-8.872C147.374,86.226,151.109,91.362,150.642,96.965"/>
		<path style="fill:#008ECF;" d="M189.397,71.284c0,10.272-8.405,18.677-18.677,18.677c-10.272,0-18.677-8.405-18.677-18.677
			s8.405-18.677,18.677-18.677C180.992,52.607,189.397,61.012,189.397,71.284"/>
		<path style="fill:#008ECF;" d="M110.953,204.825c0,9.805-7.938,18.21-18.21,18.21S75,214.63,75,204.825
			c0-9.805,7.938-18.21,18.21-18.21S110.953,195.019,110.953,204.825"/>
		<path style="fill:#008ECF;" d="M199.669,156.265c0,17.276-14.008,31.284-31.284,31.284s-31.284-14.008-31.284-31.284
			s14.008-31.284,31.284-31.284C185.661,124.981,199.669,138.988,199.669,156.265"/>
		<polygon style="fill:#283276;" points="308.463,94.163 340.214,94.163 340.214,102.101 317.802,102.101 317.802,118.444 
			336.945,118.444 336.945,126.381 317.802,126.381 317.802,151.128 308.463,151.128 		"/>
		<path style="fill:#283276;" d="M347.685,110.506h8.405v4.669c2.802-3.268,6.537-5.603,11.673-5.603
			c1.401,0,2.335,0.467,3.735,0.467v8.405c-1.401-0.467-2.802-0.467-4.202-0.467c-5.136,0-8.405,2.802-10.739,6.07v27.549h-8.405
			v-41.09H347.685z"/>
		<path style="fill:#283276;" d="M375.7,140.856c0-6.07,4.669-10.739,13.541-12.14l13.074-2.335v-2.335
			c0-5.136-3.735-7.938-8.872-7.938c-4.669,0-7.938,1.868-10.272,5.136l-6.07-4.669c3.735-4.669,9.339-7.938,16.809-7.938
			c11.206,0,17.276,6.537,17.276,15.409v27.082h-8.405v-4.669c-2.802,3.735-7.938,6.07-13.074,6.07
			C381.303,152.529,375.7,147.86,375.7,140.856 M391.109,145.525c5.136,0,9.339-2.335,11.673-6.537v-7.004l-11.206,1.868
			c-5.136,0.934-7.471,3.268-7.471,6.07C384.572,143.658,386.907,145.525,391.109,145.525"/>
		<path style="fill:#283276;" d="M422.86,110.506h8.405v4.202c3.268-3.268,7.004-5.603,13.074-5.603
			c8.872,0,15.875,6.07,15.875,17.743v24.747h-8.405v-24.28c0-6.537-3.735-10.272-9.339-10.272s-8.872,3.268-11.206,7.004v27.549
			h-8.405V110.506z"/>
		<path style="fill:#283276;" d="M503.171,139.455l6.537,5.136c-3.735,5.136-9.805,8.405-17.276,8.405
			c-13.541,0-22.412-10.272-22.412-21.946s8.405-21.946,22.412-21.946c7.471,0,13.541,3.268,17.276,8.405l-6.537,5.136
			c-2.335-3.268-6.07-5.603-10.739-5.603c-7.938,0-13.541,6.07-13.541,14.008s5.603,14.008,13.541,14.008
			C497.101,145.058,500.837,142.724,503.171,139.455"/>
		<path style="fill:#283276;" d="M537.257,152.996c-14.008,0-22.412-10.272-22.412-21.946c0-12.14,7.938-21.946,21.012-21.946
			c11.206,0,18.677,7.938,18.677,18.21c0,1.868-0.467,3.735-0.467,5.136h-30.817c0.467,8.872,6.07,13.541,14.008,13.541
			c5.136,0,9.339-2.335,11.673-5.603l6.07,4.669C551.265,149.728,545.195,152.996,537.257,152.996 M523.716,125.447h21.945
			c0-5.136-3.735-9.805-10.272-9.805C529.319,115.642,525.117,119.377,523.716,125.447"/>
		<polygon style="fill:#283276;" points="302.393,167.471 348.152,167.471 348.152,175.875 329.942,175.875 329.942,224.436 
			320.603,224.436 320.603,175.875 302.393,175.875 		"/>
		<path style="fill:#283276;" d="M352.354,183.346h8.405v4.669c2.802-3.268,6.537-5.603,11.673-5.603
			c1.401,0,2.335,0.467,3.735,0.467v8.405c-1.401-0.467-2.802-0.467-4.202-0.467c-5.136,0-8.405,2.802-10.739,6.07v27.549h-8.405
			v-41.089H352.354z"/>
		<path style="fill:#283276;" d="M380.37,213.697c0-6.07,4.669-10.739,13.541-12.14l13.074-2.335v-1.868
			c0-5.136-3.735-7.938-8.872-7.938c-4.669,0-7.938,1.868-10.272,5.136l-6.07-4.669c3.735-4.669,9.339-7.938,16.809-7.938
			c11.206,0,17.276,6.537,17.276,15.409v27.082h-8.405v-4.669c-2.802,3.735-7.938,6.07-13.074,6.07
			C385.973,225.837,380.37,221.167,380.37,213.697 M395.778,218.833c5.136,0,9.339-2.335,11.673-6.537v-7.004l-11.206,1.868
			c-5.136,0.934-7.471,3.268-7.471,6.07C388.774,216.498,391.576,218.833,395.778,218.833"/>
		<polygon style="fill:#283276;" points="431.265,183.346 443.405,215.097 455.545,183.346 464.416,183.346 449.008,224.436 
			437.802,224.436 422.393,183.346 		"/>
		<path style="fill:#283276;" d="M469.086,213.697c0-6.07,4.669-10.739,13.541-12.14l13.074-2.335v-1.868
			c0-5.136-3.735-7.938-8.872-7.938c-4.669,0-7.938,1.868-10.272,5.136l-6.07-4.669c3.735-4.669,9.339-7.938,16.809-7.938
			c11.206,0,17.276,6.537,17.276,15.409v27.082h-8.405v-4.669c-2.802,3.735-7.938,6.07-13.074,6.07
			C474.222,225.837,469.086,221.167,469.086,213.697 M484.027,218.833c5.136,0,9.339-2.335,11.673-6.537v-7.004l-11.206,1.868
			c-5.136,0.934-7.471,3.268-7.471,6.07C477.49,216.498,479.825,218.833,484.027,218.833"/>
		<rect x="517.179" y="183.346" style="fill:#283276;" width="8.405" height="41.089"/>
		<rect x="539.125" y="163.268" style="fill:#283276;" width="8.405" height="61.167"/>
		<path style="fill:#283276;" d="M516.245,170.739c0-2.802,2.335-5.136,5.136-5.136c2.802,0,5.136,2.335,5.136,5.136
			c0,2.802-2.335,5.136-5.136,5.136C518.58,175.875,516.245,173.541,516.245,170.739"/>
	</g>
	<g>
	</g>
	<g>
	</g>
	<g>
	</g>
	<g>
	</g>
	<g>
	</g>
	<g>
	</g>
</g>
</svg>
